<?xml version="1.0" encoding="UTF-8"?>
<svg version="1.1" xmlns="http://www.w3.org/2000/svg" width="256" height="256">
<path d="M0 0 C57.42 0 114.84 0 174 0 C170.47690915 46.97454465 170.47690915 46.97454465 168.80859375 67.25 C168.66752543 68.96727295 168.66752543 68.96727295 168.52360725 70.71923828 C168.03034653 76.71987896 167.53514938 82.72035608 167.03833008 88.72070312 C166.63217995 93.63055545 166.23009469 98.54071682 165.83129883 103.45117188 C165.34094929 109.48889882 164.8441342 115.52606027 164.34257698 121.56286621 C164.15496458 123.83359512 163.96957299 126.10450873 163.78652763 128.37561035 C163.53245692 131.52179213 163.27004471 134.66717426 163.00561523 137.8125 C162.89723579 139.18991364 162.89723579 139.18991364 162.78666687 140.59515381 C161.79326163 152.14386075 159.13724829 160.61702625 150.29296875 168.421875 C143.74761342 172.92668514 138.20856339 173.44338664 130.44995117 173.41992188 C128.89243385 173.43262619 128.89243385 173.43262619 127.30345154 173.44558716 C123.88316475 173.46891691 120.46332898 173.46998014 117.04296875 173.46875 C114.65554119 173.47585463 112.26811534 173.48355408 109.88069153 173.49182129 C104.87996677 173.50525738 99.87939985 173.50683899 94.87866211 173.50097656 C88.48646643 173.49508542 82.09503155 173.52565305 75.7029829 173.56609344 C70.7725673 173.59200947 65.84233384 173.59484419 60.91185951 173.59120178 C58.55605472 173.59288976 56.20024121 173.60250102 53.8445034 173.62034607 C50.54190327 173.642609 47.24082965 173.63279485 43.93823242 173.61523438 C42.97530273 173.62849762 42.01237305 173.64176086 41.02026367 173.65542603 C32.92221718 173.55593736 26.50501325 171.01018785 20.34375 165.71875 C19.7353125 164.9865625 19.126875 164.254375 18.5 163.5 C17.8709375 162.7678125 17.241875 162.035625 16.59375 161.28125 C13.38234959 156.68453961 12.57560952 152.08025268 12.03759766 146.59326172 C11.95719553 145.82258802 11.8767934 145.05191433 11.79395485 144.25788689 C10.55761762 132.0715625 9.58528722 119.85878193 8.57599211 107.65199518 C8.27465316 104.01296964 7.97070522 100.37416182 7.66714478 96.73532104 C7.1595109 90.64546703 6.65383404 84.55545304 6.14941406 78.46533203 C5.56680074 71.43138886 4.98121872 64.39769758 4.39405382 57.364133 C3.82651899 50.5650981 3.26085861 43.76590858 2.69612503 36.96664047 C2.45667036 34.08391423 2.21659583 31.20124061 1.97602463 28.31860733 C1.64141699 24.30777915 1.30957069 20.29672718 0.97802734 16.28564453 C0.87831131 15.09400696 0.77859528 13.90236938 0.67585754 12.67462158 C0.58619217 11.58446747 0.49652679 10.49431335 0.40414429 9.37112427 C0.32562414 8.42477678 0.247104 7.4784293 0.16620445 6.50340462 C0.02255041 4.33965871 0 2.16850936 0 0 Z M34.79795837 27.56541443 C32.34684414 30.8844275 32.55752273 32.97880082 32.67016602 37.07836914 C32.68612351 37.77924432 32.70208101 38.4801195 32.71852207 39.20223331 C32.95916539 47.73162926 33.61176791 56.24148059 34.27734375 64.74609375 C34.40994905 66.49524875 34.54206491 68.24444092 34.67372131 69.9936676 C34.94836853 73.62684423 35.22683691 77.25969811 35.50854492 80.89233398 C35.8679413 85.52706467 36.2206852 90.1622699 36.57096004 94.79769802 C36.90838816 99.25983143 37.24893818 103.72172488 37.58984375 108.18359375 C37.65361647 109.02120176 37.71738918 109.85880978 37.78309441 110.72179985 C38.1722469 115.81598925 38.57826059 120.9084022 39 126 C39.07687042 126.98743195 39.15374084 127.97486389 39.23294067 128.99221802 C39.58438099 132.89468315 39.8890671 134.84152443 42.1875 138.125 C44.87019144 140.27769903 44.87019144 140.27769903 48.125 140.0625 C51.5371967 138.80147078 52.30861072 138.19267824 54 135 C54.13936929 132.00918933 54.08135229 129.28383166 53.8671875 126.3125 C53.81182831 125.37462646 53.75646912 124.43675293 53.69943237 123.47045898 C53.48542782 119.97883786 53.24279592 116.48973677 53 113 C52.90196797 111.52673114 52.80454444 110.05342169 52.7076416 108.58007812 C52.02422675 98.21347709 51.28876197 87.85126981 50.52587891 77.49023438 C50.18681388 72.87590314 49.86268466 68.26063937 49.54149055 63.64503479 C49.28909346 60.05844036 49.02546761 56.47273441 48.75878525 52.88717651 C48.63413056 51.18430166 48.51373198 49.48110937 48.39780045 47.77761841 C48.23564443 45.40928517 48.05749933 43.04266002 47.87548828 40.67578125 C47.83174072 39.98385681 47.78799316 39.29193237 47.74291992 38.57904053 C47.37865165 34.12819152 46.41578156 30.76975432 44 27 C40.16973352 25.74645824 38.17205894 25.16679233 34.79795837 27.56541443 Z M82.29043579 27.87280273 C79.06985365 32.26995532 79.29611311 35.71189105 79.35302734 41.03515625 C79.34426575 42.04222626 79.33550415 43.04929626 79.32647705 44.08688354 C79.30448811 47.41252857 79.31903492 50.73684169 79.3359375 54.0625 C79.33256925 56.37508398 79.32771655 58.68766623 79.32144165 61.00024414 C79.31407096 65.84571191 79.32478278 70.69071865 79.34814453 75.53613281 C79.37663167 81.74734696 79.36022886 87.95748089 79.33028221 94.1686554 C79.31221499 98.94364563 79.31796479 103.71837974 79.33092117 108.49337769 C79.33425674 110.78351977 79.33016286 113.07368511 79.31852341 115.36380005 C79.3058249 118.56477456 79.32517972 121.76399957 79.35302734 124.96484375 C79.34290619 125.91148895 79.33278503 126.85813416 79.32235718 127.83346558 C79.39567258 132.38200549 79.53973459 134.38700758 82.34512329 138.12329102 C84.88362588 140.28986704 84.88362588 140.28986704 88.125 140.0625 C91.58191191 138.7849456 92.28891866 138.24500116 94 135 C94.45947477 131.69556884 94.43019769 128.41027677 94.41992188 125.07836914 C94.42839142 124.07144516 94.43686096 123.06452118 94.44558716 122.02708435 C94.46899934 118.69631341 94.4699783 115.36600327 94.46875 112.03515625 C94.47584889 109.72114374 94.48354748 107.407133 94.49182129 105.09312439 C94.50527573 100.24180204 94.50683042 95.39064244 94.50097656 90.53930664 C94.49507896 84.32027962 94.52567099 78.10203284 94.56609344 71.88315678 C94.59193341 67.10391527 94.5948512 62.32486257 94.59120178 57.54556084 C94.59289642 55.25260901 94.60257177 52.95964878 94.62034607 50.66676521 C94.64246224 47.46098618 94.63287023 44.25679862 94.61523438 41.05102539 C94.62849762 40.10280914 94.64176086 39.1545929 94.65542603 38.17764282 C94.59762044 33.65912095 94.44811932 31.61255463 91.71154785 27.87181091 C87.95188553 25.27647521 86.04891061 25.27501158 82.29043579 27.87280273 Z M128 30 C126.71007208 33.86978375 126.5397945 37.69439212 126.24389648 41.73486328 C126.17547546 42.62792679 126.10705444 43.5209903 126.03656006 44.44111633 C125.81088615 47.40057056 125.59083901 50.36041258 125.37109375 53.3203125 C125.21582047 55.37956517 125.06030458 57.43879956 124.90455627 59.49801636 C124.57850736 63.82043603 124.2551998 68.14304972 123.93383789 72.46582031 C123.52292434 77.99065131 123.1056071 83.51497562 122.68624783 89.03917122 C122.36376782 93.29592518 122.04456011 97.55291973 121.72633553 101.80999374 C121.57380275 103.84570409 121.42030534 105.8813424 121.2658062 107.91690445 C121.04948517 110.77395854 120.83754138 113.63130585 120.62670898 116.48876953 C120.56282486 117.3213176 120.49894073 118.15386566 120.43312073 119.01164246 C120.14534952 122.97130872 119.92492219 126.92995327 119.82801819 130.8991394 C119.80901994 131.61237303 119.79002169 132.32560665 119.77044773 133.06045341 C119.89098769 135.3563008 119.89098769 135.3563008 122.125 138.125 C124.86439338 140.27313238 124.86439338 140.27313238 128.125 140.0625 C131.57817027 138.78632838 132.24638195 138.21208489 134 135 C134.63525248 131.78670763 134.8417377 128.56151396 135.0625 125.296875 C135.13901794 124.32280197 135.21553589 123.34872894 135.29437256 122.34513855 C135.54240765 119.14759121 135.7714643 115.94899527 136 112.75 C136.1671862 110.53580473 136.33549059 108.32169362 136.50488281 106.10766602 C136.84814323 101.5952167 137.18378827 97.08229396 137.51367188 92.56884766 C137.95795409 86.51644376 138.43510282 80.46708 138.921875 74.41796875 C139.13256037 71.76239819 139.34225186 69.10675213 139.55126953 66.4510498 C139.68156569 64.8030595 139.81334908 63.15518596 139.94677734 61.50744629 C140.59948266 53.39099691 141.1417997 45.27084359 141.328125 37.12890625 C141.36325195 35.85217041 141.39837891 34.57543457 141.43457031 33.26000977 C141.26783344 29.92992679 141.26783344 29.92992679 139.13574219 27.58569336 C137.09356466 25.83364551 137.09356466 25.83364551 134.5 25.5 C131.22106109 26.15578778 130.06517707 27.41852866 128 30 Z " fill="#000000" transform="translate(41,83)"/>
<path d="M0 0 C1.05507248 -0.01283524 2.11014496 -0.02567047 3.19718933 -0.03889465 C4.33779312 -0.04628159 5.47839691 -0.05366852 6.65356445 -0.0612793 C7.82893265 -0.06935104 9.00430084 -0.07742279 10.21528625 -0.08573914 C12.70600917 -0.09957929 15.19675104 -0.11030175 17.6875 -0.11816406 C21.4845001 -0.13535163 25.28062388 -0.17923733 29.07739258 -0.22338867 C31.49861014 -0.23351795 33.9198351 -0.24203331 36.34106445 -0.2487793 C37.47154709 -0.26628738 38.60202972 -0.28379547 39.76676941 -0.30183411 C47.40108705 -0.28097679 53.15419871 0.60827813 58.8527832 6.1418457 C59.29879883 6.79282227 59.74481445 7.44379883 60.2043457 8.11450195 C60.89657227 9.08709961 60.89657227 9.08709961 61.6027832 10.0793457 C64.47200873 14.98626962 65.0608388 18.79212147 64.9543457 24.48950195 C64.93629883 25.74375977 64.91825195 26.99801758 64.8996582 28.2902832 C64.87645508 29.24290039 64.85325195 30.19551758 64.8293457 31.17700195 C65.96887695 31.15605469 67.1084082 31.13510742 68.2824707 31.11352539 C72.53901439 31.04073581 76.79550384 30.99506153 81.05249023 30.95727539 C82.88949864 30.93724822 84.726444 30.91001813 86.56323242 30.87524414 C89.21459572 30.82633131 91.86511111 30.80394432 94.5168457 30.78637695 C95.32863281 30.76573181 96.14041992 30.74508667 96.97680664 30.72381592 C103.61319508 30.72124606 109.02308025 32.45199902 113.8527832 37.1418457 C114.29879883 37.79282227 114.74481445 38.44379883 115.2043457 39.11450195 C115.89657227 40.08709961 115.89657227 40.08709961 116.6027832 41.0793457 C119.52011431 46.06853935 120.21922952 50.44189757 120.2668457 56.17700195 C120.2997168 56.87567383 120.33258789 57.5743457 120.36645508 58.29418945 C120.4049402 62.00275527 120.03585324 63.90622818 117.77124023 66.87560081 C114.18202578 69.68339088 111.57549566 69.88106398 107.20043945 69.81192017 C106.44015442 69.81972012 105.67986938 69.82752007 104.89654541 69.83555639 C102.35281701 69.85547617 99.81058479 69.83971302 97.2668457 69.82397461 C95.44172289 69.83075077 93.61660692 69.8396539 91.79150391 69.8505249 C86.8369064 69.87332497 81.88282929 69.86447895 76.92822266 69.84862947 C71.74420769 69.83597419 66.56023741 69.84770956 61.3762207 69.8555603 C52.67041012 69.86465793 43.96481159 69.85266592 35.2590332 69.82885742 C25.19266771 69.80164598 15.12680855 69.81046006 5.06045532 69.83798945 C-3.58088517 69.86067623 -12.22207319 69.86388269 -20.86343384 69.8507961 C-26.02516988 69.84299924 -31.1866679 69.84196653 -36.34838867 69.85847855 C-41.20113843 69.87291772 -46.05323513 69.86291165 -50.90591431 69.83400726 C-52.68729569 69.8273935 -54.46873199 69.82929911 -56.25009155 69.84032059 C-58.6813866 69.85397689 -61.11058669 69.83686205 -63.54174805 69.81192017 C-64.24748962 69.82307377 -64.9532312 69.83422738 -65.68035889 69.84571898 C-69.47351969 69.77018556 -71.08964397 69.24082067 -74.10595703 66.86461449 C-76.74283107 63.43220053 -76.93760197 60.66020071 -76.7956543 56.48950195 C-76.78018555 55.78196777 -76.7647168 55.07443359 -76.7487793 54.34545898 C-76.40593468 47.11770118 -74.51874002 41.34921546 -69.1628418 36.2746582 C-63.29194314 31.67109376 -58.72910703 31.03385338 -51.34643555 31.0793457 C-50.05433418 31.08146812 -50.05433418 31.08146812 -48.73612976 31.08363342 C-45.9851026 31.08923055 -43.23415685 31.1017825 -40.4831543 31.11450195 C-38.6179211 31.11951733 -36.75268662 31.12408017 -34.88745117 31.12817383 C-30.31515418 31.13919904 -25.74291804 31.15646168 -21.1706543 31.17700195 C-21.19385742 30.23018555 -21.21706055 29.28336914 -21.2409668 28.30786133 C-21.25901367 27.05811523 -21.27706055 25.80836914 -21.2956543 24.52075195 C-21.31885742 23.28518555 -21.34206055 22.04961914 -21.3659668 20.77661133 C-21.02304707 14.45660082 -18.74160685 9.62290817 -14.1628418 5.2668457 C-9.50814843 1.63412375 -5.95836092 0.06317129 0 0 Z M-4.1706543 18.17700195 C-5.99054589 21.44410714 -5.99054589 21.44410714 -5.1706543 31.17700195 C12.6493457 31.17700195 30.4693457 31.17700195 48.8293457 31.17700195 C49.87102868 21.15398793 49.87102868 21.15398793 47.0168457 17.55200195 C42.52657347 14.72954512 38.12347241 14.99979223 32.99731445 14.97387695 C32.12794754 14.96817688 31.25858063 14.96247681 30.36286926 14.956604 C28.52284968 14.94715918 26.68281322 14.94062207 24.84277344 14.93676758 C22.03786426 14.92707459 19.23369191 14.89605185 16.42895508 14.86450195 C14.63924588 14.85797028 12.84953145 14.85272045 11.05981445 14.84887695 C10.22524216 14.83653015 9.39066986 14.82418335 8.5308075 14.8114624 C3.56132861 14.83032419 0.12929309 15.40131644 -4.1706543 18.17700195 Z " fill="#000000" transform="translate(106.170654296875,-0.177001953125)"/>
</svg>
